<?xml version="1.0" encoding="iso-8859-1"?>
<!-- Generator: Adobe Illustrator 17.1.0, SVG Export Plug-In . SVG Version: 6.00 Build 0)  -->
<!DOCTYPE svg PUBLIC "-//W3C//DTD SVG 1.1//EN" "http://www.w3.org/Graphics/SVG/1.1/DTD/svg11.dtd">
<svg version="1.1" id="Capa_1" xmlns="http://www.w3.org/2000/svg" xmlns:xlink="http://www.w3.org/1999/xlink" x="0px" y="0px"
	 viewBox="0 0 512 512" style="enable-background:new 0 0 512 512;" xml:space="preserve">
<g>
	<path d="M176,136.132c-8.822,0-16,7.178-16,16s7.178,16,16,16s16-7.178,16-16S184.822,136.132,176,136.132z"/>
	<path d="M336,136.132c-8.822,0-16,7.178-16,16s7.178,16,16,16s16-7.178,16-16S344.822,136.132,336,136.132z"/>
	<path d="M468.208,74.273C436.242,25.077,410.602,0.132,392,0.132c-18.835,0-35.414,7.058-51.445,13.883
		c-16.867,7.181-32.82,13.971-51.65,13.525c-10.428-2.241-21.433-3.408-32.904-3.408c-11.462,0-22.472,1.163-32.907,3.408
		c-18.822,0.444-34.781-6.344-51.647-13.525C155.414,7.19,138.835,0.132,120,0.132c-18.602,0-44.242,24.945-76.208,74.141
		C25.433,102.529,0,148.085,0,160.132c0,35.876,19.708,47.62,40.572,60.054c13.086,7.798,27.918,16.637,41.222,32.994
		c19.089,23.47,36.808,39.416,54.168,48.749c14.229,7.649,26.006,9.652,35.235,10.09c-0.093,0.573-0.185,1.146-0.274,1.721
		c-4.673,30.249-2.177,50.452,7.42,60.049c1.577,1.577,3.69,2.422,5.829,2.421c0.949,0,1.903-0.166,2.818-0.508
		c5.071-1.897,5.399-6.633,5.639-10.09c0.508-7.318,1.863-26.81,17.047-53.405c0.411,6.342,0.822,12.949,1.243,19.736
		c3.938,63.424,8.401,135.311,22.078,160.059c5.965,10.794,15.771,17.697,27.611,19.437c1.824,0.268,3.815,0.429,5.968,0.429
		c12.278,0,29.785-5.256,51.016-26.015c15.804-15.453,24.686-32.953,29.993-43.408c1.308-2.577,2.438-4.803,3.274-6.196
		c1.485-2.475,1.707-5.436,0.607-8.122c-0.846-2.067-2.826-6.907-21.459-11.738c-3.299-0.855-6.777,0.473-8.667,3.31
		c-9.194,13.807-19.793,27.172-26.508,33.79c-0.388-21.966,3.083-82.644,7.461-142.398c15.786,27.162,17.185,47.102,17.699,54.522
		c0.24,3.458,0.568,8.193,5.639,10.09c0.915,0.342,1.869,0.509,2.818,0.508c2.14,0,4.253-0.845,5.83-2.421
		c9.597-9.597,12.094-29.801,7.42-60.049c-0.09-0.585-0.184-1.168-0.278-1.751c22.03-1.209,49.802-10.878,88.785-58.809
		c13.303-16.357,28.135-25.196,41.222-32.994C492.292,207.752,512,196.009,512,160.132C512,148.085,486.567,102.529,468.208,74.273z
		 M185.482,325.623c0.318-2.918,0.73-6.059,1.253-9.439c2.243-14.514,5.68-28.057,8.556-37.446l10.226,10.226
		C196.021,302.503,189.705,314.883,185.482,325.623z M307.106,288.963l10.226-10.226c2.876,9.389,6.313,22.931,8.556,37.446
		c0.522,3.38,0.935,6.521,1.252,9.439C322.918,314.882,316.601,302.503,307.106,288.963z M463.237,206.442
		c-13.522,8.058-30.352,18.087-45.444,36.643c-36.464,44.833-60.641,52.463-79.419,53.013c-0.799-3.62-1.637-7.107-2.487-10.406
		c0.128-0.132,0.259-0.259,0.379-0.401C365.709,250.353,384,199.33,384,152.132c0-26.113-5.525-49.184-16.406-68.601
		c-1.134-3.197-0.802-7.105,0.958-10.804c2.052-4.313,5.736-7.665,9.857-8.966c4.213-1.33,6.55-5.824,5.219-10.038
		c-1.33-4.212-5.824-6.551-10.038-5.219c-8.401,2.653-15.504,8.977-19.487,17.351c-3.725,7.832-4.188,16.551-1.27,23.924
		c0.028,0.071,0.069,0.133,0.099,0.203c0.078,0.181,0.169,0.358,0.261,0.535c0.079,0.151,0.149,0.309,0.236,0.453
		c9.667,17.075,14.57,37.65,14.57,61.164c0,40.116-14.275,83.169-37.686,114.862c-0.723-2.057-1.393-3.809-1.984-5.201
		c-1.173-6.565-8.33-47.521-8.33-69.66c0-4.418-3.582-8-8-8s-8,3.582-8,8c0,21.311,5.895,57.1,8.017,69.293l-19.532,19.532
		c-2.456,1.206-4.234,3.632-4.461,6.558c-0.033,0.421-3.285,42.557-5.884,85.13c-5.406,88.556-3.024,92.366-0.924,95.727
		c2.016,3.226,5.327,5.107,9.083,5.161c5.274,0.079,12.429-2.742,28.916-23.7c4.86-6.179,9.25-12.301,12.097-16.381
		c0.862,0.285,1.692,0.575,2.46,0.858c-0.148,0.291-0.299,0.588-0.453,0.893c-4.86,9.576-12.995,25.602-26.912,39.209
		c-15.816,15.464-31.252,22.989-43.473,21.196c-8.692-1.277-13.462-6.875-15.933-11.346
		c-11.935-21.596-16.661-97.725-20.112-153.312c-0.984-15.841-1.913-30.804-2.915-43.451c-0.002-0.021-0.006-0.042-0.008-0.063
		c-0.008-0.089-0.021-0.176-0.031-0.265c-0.013-0.108-0.028-0.216-0.045-0.323c-0.011-0.067-0.018-0.135-0.031-0.202
		c-0.015-0.081-0.037-0.16-0.054-0.241c-0.023-0.104-0.048-0.208-0.075-0.311c-0.019-0.072-0.033-0.146-0.054-0.217
		c-0.021-0.073-0.05-0.144-0.073-0.217c-0.033-0.102-0.068-0.203-0.105-0.304c-0.027-0.073-0.049-0.149-0.078-0.221
		c-0.026-0.065-0.059-0.127-0.087-0.192c-0.045-0.104-0.093-0.207-0.142-0.309c-0.034-0.069-0.063-0.141-0.098-0.209
		c-0.03-0.057-0.066-0.111-0.097-0.167c-0.059-0.107-0.121-0.212-0.185-0.317c-0.039-0.064-0.074-0.13-0.115-0.192
		c-0.033-0.05-0.071-0.097-0.105-0.147c-0.072-0.105-0.147-0.208-0.224-0.309c-0.046-0.06-0.089-0.123-0.137-0.182
		c-0.037-0.046-0.079-0.09-0.118-0.136c-0.08-0.094-0.162-0.187-0.247-0.278c-0.055-0.06-0.109-0.12-0.166-0.178
		c-0.014-0.015-0.027-0.031-0.041-0.046l-21.095-21.095c1.959-12.128,7.438-47.95,7.438-69.248c0-4.418-3.582-8-8-8s-8,3.582-8,8
		c0,22.119-6.614,62.986-7.729,69.711c-0.641,1.513-1.372,3.44-2.163,5.722C158.447,235.82,144,192.489,144,152.132
		c0-23.515,4.905-44.093,14.574-61.168c0.08-0.134,0.145-0.279,0.218-0.419c0.098-0.186,0.193-0.373,0.275-0.563
		c0.03-0.07,0.071-0.133,0.1-0.204c2.918-7.373,2.456-16.092-1.27-23.924c-3.983-8.374-11.086-14.698-19.487-17.351
		c-4.215-1.334-8.708,1.007-10.038,5.219c-1.331,4.213,1.006,8.708,5.219,10.038c4.121,1.301,7.805,4.653,9.857,8.966
		c1.759,3.699,2.092,7.607,0.958,10.803C133.525,102.948,128,126.02,128,152.132c0,47.191,18.287,98.21,47.725,133.147
		c0.275,0.326,0.576,0.615,0.889,0.885c-0.81,3.163-1.608,6.496-2.369,9.948c-18.865-0.401-43.173-7.702-80.038-53.029
		c-15.092-18.555-31.921-28.584-45.444-36.643C28.373,194.291,16.05,186.946,16,160.292c0.806-6.18,17.696-41.354,42.136-78.724
		c12.631-19.314,24.907-35.497,35.5-46.798C109.402,17.948,117.325,16.132,120,16.132c15.571,0,29.953,6.123,45.178,12.604
		c8.423,3.586,16.988,7.216,26.047,9.994c-6.226,3.179-12.098,6.86-17.566,11.033c-3.512,2.68-4.187,7.7-1.507,11.213
		s7.7,4.189,11.213,1.507c11.928-9.101,26.165-15.529,42.051-19.087c0.208-0.037,0.414-0.079,0.615-0.132
		c9.457-2.069,19.49-3.131,29.968-3.131c10.51,0,20.556,1.073,30.024,3.148c0.184,0.047,0.372,0.082,0.561,0.116
		c16.485,3.69,31.181,10.466,43.384,20.123c1.47,1.163,3.221,1.728,4.959,1.728c2.361,0,4.699-1.041,6.278-3.036
		c2.742-3.465,2.156-8.496-1.308-11.238c-5.913-4.68-12.324-8.752-19.146-12.236c9.068-2.779,17.641-6.412,26.07-10
		c15.226-6.482,29.607-12.604,45.178-12.604c2.675,0,10.598,1.816,26.364,18.638c10.593,11.301,22.869,27.484,35.5,46.798
		c24.44,37.371,41.33,72.544,42.136,78.724C495.95,186.946,483.627,194.291,463.237,206.442z"/>
</g>
<g>
</g>
<g>
</g>
<g>
</g>
<g>
</g>
<g>
</g>
<g>
</g>
<g>
</g>
<g>
</g>
<g>
</g>
<g>
</g>
<g>
</g>
<g>
</g>
<g>
</g>
<g>
</g>
<g>
</g>
</svg>
