<?xml version="1.0" encoding="UTF-8"?>
<!DOCTYPE svg PUBLIC "-//W3C//DTD SVG 1.1//EN" "http://www.w3.org/Graphics/SVG/1.1/DTD/svg11.dtd">
<svg version="1.1" xmlns="http://www.w3.org/2000/svg" xmlns:xlink="http://www.w3.org/1999/xlink" x="0" y="0" width="370" height="538" viewBox="0, 0, 370, 538">
  <g id="Layer_1">
    <path d="M270.055,261.188 C270.09,261.367 270.118,261.539 270.151,261.716 C265.384,266.653 259.428,270.288 254.885,272.608 C265.411,261.345 267.417,247.817 260.624,233.085 C260.923,228.728 258.843,224.307 254.415,219.907 L254.636,219.777 C254.837,219.665 255.039,219.558 255.238,219.438 L255.454,219.323 L255.443,219.309 C259.251,216.973 262.683,213.244 263.944,208.625 C265.023,204.672 264.868,198.579 257.996,191.999 C252.258,186.504 242.729,186.374 233.722,191.669 C230.044,193.831 226.398,196.983 223.349,201.043 C223.239,197.143 221.976,193.209 220.657,189.127 C217.218,178.48 213.677,167.473 227.646,152.737 C247.232,163.525 274.96,189.751 277.625,227.814 C278.703,243.216 275.116,253.806 270.055,261.188 M250.579,331.623 C249.679,329.781 248.494,328.069 247.153,326.486 C239.928,309.263 240.509,290.207 245.84,279.92 C246.881,279.446 247.927,278.808 248.976,277.997 C250.603,277.408 261.938,273.113 270.655,264.774 C275.505,300.529 240.684,304.409 250.579,331.623 M246.806,361.468 C238.21,383.273 197.646,385.126 188.678,367.024 C188.183,366.026 187.749,365.049 187.354,364.089 C188.062,359.623 188.07,354.994 187.59,350.792 C199.338,345.781 220.753,323.427 221.284,322.63 C221.447,322.385 221.925,321.713 222.437,320.915 C225.399,318.535 232.258,312.214 233.29,303.978 C233.927,298.903 232.231,294.02 228.256,289.463 C225.609,286.432 223.226,283.429 221.067,280.454 C217.845,275.472 214.988,260.541 219.87,247.38 C223.592,260.589 229.495,277.398 238.562,280.432 C239.542,280.759 240.531,280.923 241.53,280.923 C241.89,280.923 242.25,280.896 242.61,280.854 C237.852,291.903 238.111,307.803 242.896,322.27 C238.135,318.243 232.871,315.582 230.374,314.65 C229.363,314.273 229.51,315.476 229.51,315.476 C240.851,321.007 255.401,339.665 246.806,361.468 M184.681,425.78 C184.681,425.78 141.074,404.762 143.484,395.539 C145.895,386.313 178.601,381.176 178.601,381.176 C181.296,379.059 183.309,376.229 184.767,373.014 C186.225,376.229 188.238,379.059 190.933,381.176 C190.933,381.176 223.639,386.313 226.05,395.539 C228.461,404.762 184.681,425.78 184.681,425.78 M122.729,361.468 C114.318,340.135 128.063,321.822 139.285,315.86 C139.546,316.89 140.235,318.117 141.407,319.171 C144.504,321.959 172.919,347.622 181.882,351.39 C181.468,355.431 181.506,359.833 182.18,364.089 C181.784,365.049 181.351,366.026 180.856,367.024 C171.888,385.126 131.325,383.273 122.729,361.468 M98.879,264.774 C107.597,273.113 118.931,277.408 120.558,277.997 C121.608,278.808 122.654,279.446 123.694,279.92 C129.025,290.206 129.606,309.263 122.382,326.485 C121.04,328.069 119.855,329.781 118.955,331.623 C128.851,304.409 94.03,300.529 98.879,264.774 M91.909,227.814 C94.574,189.751 122.302,163.525 141.887,152.737 C155.858,167.474 152.316,178.48 148.876,189.127 C147.558,193.209 146.295,197.144 146.185,201.044 C143.136,196.983 139.49,193.831 135.813,191.669 C126.804,186.374 117.276,186.502 111.539,191.999 C104.666,198.579 104.511,204.672 105.59,208.624 C106.851,213.244 110.283,216.973 114.091,219.309 L114.08,219.323 L114.295,219.438 C114.495,219.558 114.698,219.666 114.9,219.778 L115.119,219.907 C110.692,224.307 108.612,228.728 108.91,233.084 C102.117,247.82 104.125,261.35 114.656,272.614 C110.114,270.295 104.154,266.662 99.382,261.718 C99.416,261.54 99.444,261.367 99.479,261.188 C94.416,253.806 90.831,243.216 91.909,227.814 M128.004,280.923 C129.003,280.923 129.993,280.759 130.973,280.432 C140.04,277.398 145.943,260.589 149.665,247.38 C154.546,260.541 151.689,275.471 148.467,280.452 C146.308,283.429 143.925,286.432 141.279,289.463 C137.055,294.303 135.142,299.498 135.594,304.903 C135.909,308.682 137.336,312.019 138.987,314.72 C136.43,315.702 131.301,318.327 126.638,322.269 C131.423,307.803 131.682,291.903 126.924,280.854 C127.284,280.896 127.645,280.923 128.004,280.923 M117.219,221.369 C120.213,223.711 123.625,227.593 122.371,232.01 C121.678,234.449 132.635,238.664 139.396,239.607 C145.411,240.447 145.701,249.493 145.471,252.035 C145.243,252.533 144.958,252.956 144.601,253.272 C143.114,254.589 140.271,254.513 136.379,253.053 C121.657,247.532 112.843,240.788 111.559,234.062 C110.786,230.01 112.691,225.744 117.219,221.369 M153.212,217.153 C156.589,221.134 161.577,228.708 162.521,239.498 C163.428,249.856 160.498,260.825 153.83,272.258 C155.318,264.205 155.188,253.189 150.719,243.535 C151.132,241.992 151.513,240.529 151.863,239.188 L152.184,237.956 C154.215,230.193 154.347,223.236 153.212,217.153 M150.638,233.313 C149.837,228.794 147.646,225.397 144.742,221.839 C138.962,214.758 122.697,210.741 115.706,217.337 C112.292,215.318 109.121,212.004 108.017,207.961 C106.727,203.238 108.546,198.347 113.278,193.815 C118.182,189.12 126.527,189.128 134.538,193.838 C139.283,196.627 143.971,201.194 147.198,207.355 L147.215,207.407 L147.223,207.405 C150.76,214.186 152.526,222.895 150.638,233.313 M109.906,237.201 C113.461,245.582 125.508,251.664 135.495,255.409 C137.832,256.285 139.88,256.723 141.628,256.723 C142.593,256.723 143.465,256.587 144.246,256.32 C140.798,266.31 136.119,276.057 130.174,278.046 C127.569,278.918 124.872,278.213 121.938,275.887 C108.288,265.071 104.253,252.069 109.906,237.201 M253.828,217.337 C246.837,210.741 230.572,214.758 224.792,221.839 C221.888,225.397 219.697,228.794 218.896,233.312 C217.008,222.894 218.773,214.186 222.312,207.404 L222.319,207.407 L222.338,207.354 C225.563,201.193 230.251,196.627 234.996,193.838 C243.008,189.129 251.353,189.12 256.257,193.815 C260.987,198.347 262.807,203.238 261.518,207.962 C260.413,212.004 257.241,215.318 253.828,217.337 M257.976,234.062 C256.691,240.788 247.878,247.532 233.155,253.053 C229.263,254.513 226.42,254.589 224.934,253.272 C224.577,252.956 224.292,252.532 224.063,252.034 C223.833,249.491 224.124,240.447 230.138,239.607 C236.899,238.664 247.855,234.449 247.163,232.01 C245.909,227.593 249.321,223.71 252.315,221.369 C256.844,225.744 258.748,230.01 257.976,234.062 M215.704,272.257 C209.049,260.844 206.116,249.894 207.008,239.552 C207.938,228.769 212.936,221.168 216.319,217.168 C215.188,223.248 215.321,230.199 217.35,237.956 L217.672,239.188 C218.021,240.529 218.402,241.992 218.815,243.535 C214.346,253.189 214.217,264.204 215.704,272.257 M259.628,237.202 C265.281,252.069 261.246,265.07 247.597,275.887 C244.664,278.212 241.967,278.917 239.36,278.046 C233.416,276.057 228.736,266.31 225.289,256.32 C226.069,256.587 226.941,256.723 227.906,256.723 C229.654,256.723 231.703,256.285 234.039,255.409 C244.025,251.664 256.073,245.582 259.628,237.202 M147.573,149.928 C147.573,149.928 170.454,178.356 185.075,190.081 C185.506,203.813 185.491,234.19 185.336,255.629 L187.851,255.647 C187.893,249.854 188.179,206.682 187.558,189.317 C201.97,177.576 221.962,149.928 221.962,149.928 C223.044,150.396 224.175,150.934 225.336,151.521 C210.911,167.125 214.976,179.722 218.264,189.9 C220.219,195.95 221.902,201.186 220.035,206.314 C219.075,208.161 218.24,210.14 217.562,212.247 C215.564,213.991 205.914,223.195 204.507,239.279 C203.333,252.685 208.21,266.971 218.98,281.857 L219.047,281.965 L219.056,281.959 C221.254,284.989 223.675,288.041 226.36,291.118 C229.843,295.107 231.335,299.326 230.795,303.655 C230.082,309.379 225.988,314.225 222.971,317.089 C222.555,317.225 222.004,317.488 221.284,317.914 C216.919,324.15 164.936,336.565 141.987,314.695 C140.166,312.07 138.429,308.62 138.101,304.693 C137.708,299.993 139.414,295.425 143.174,291.118 C145.86,288.041 148.281,284.989 150.478,281.959 L150.488,281.965 L150.554,281.856 C161.325,266.971 166.201,252.685 165.028,239.279 C163.62,223.193 153.968,213.989 151.972,212.247 C151.292,210.14 150.458,208.161 149.499,206.314 C147.632,201.186 149.316,195.951 151.271,189.9 C154.559,179.722 158.623,167.125 144.199,151.52 C145.36,150.934 146.491,150.396 147.573,149.928 M291.462,41.642 C245.832,20.569 188.678,117.117 188.678,117.117 C188.678,117.117 202.709,54.221 249.601,22.354 C216.825,6.42 184.733,2.227 184.733,2.227 C184.733,2.227 152.708,6.42 119.933,22.354 C166.825,54.221 180.856,117.117 180.856,117.117 C180.856,117.117 123.702,20.569 78.073,41.642 C28.861,64.368 -4.531,144.998 0.501,208.316 C7,199.93 45.786,178.824 71.364,182.728 C43.689,189.052 10.564,221.119 2.597,237.638 C2.597,237.638 7.629,344.381 61.3,421.115 C71.364,403.923 106.188,383.796 106.188,383.796 C106.188,383.796 71.364,434.953 73.879,434.953 C76.395,434.953 156.908,517.975 184.839,535.586 C212.769,517.975 293.139,434.953 295.655,434.953 C298.171,434.953 263.346,383.796 263.346,383.796 C263.346,383.796 298.171,403.923 308.234,421.115 C361.905,344.381 366.938,237.638 366.938,237.638 C358.971,221.119 325.845,189.052 298.171,182.728 C323.748,178.824 362.534,199.93 369.034,208.316 C374.065,144.998 340.674,64.368 291.462,41.642" fill="#0B0B09"/>
  </g>
</svg>
